HIERARCHY
ROOT Hips
{
	OFFSET 0.000000 0.000000 0.000000
	CHANNELS 6 Xposition Yposition Zposition Zrotation Yrotation Xrotation 
	JOINT LowerBack
	{
		OFFSET 0.000000 0.000000 0.000000
		CHANNELS 3 Zrotation Yrotation Xrotation
		JOINT Spine
		{
			OFFSET 0.028270 2.035590 -0.193380
			CHANNELS 3 Zrotation Yrotation Xrotation
			JOINT Spine1
			{
				OFFSET 0.056720 2.048850 -0.042750
				CHANNELS 3 Zrotation Yrotation Xrotation
				JOINT Neck
				{
					OFFSET 0.000000 0.000000 0.000000
					CHANNELS 3 Zrotation Yrotation Xrotation
					JOINT Neck1
					{
						OFFSET -0.054170 1.746240 0.172020
						CHANNELS 3 Zrotation Yrotation Xrotation
						JOINT Head
						{
							OFFSET 0.104070 1.761360 -0.123970
							CHANNELS 3 Zrotation Yrotation Xrotation
							End Site
							{
								OFFSET 0.000000 0.000000 0.000000
							}
						}
					}
				}
				JOINT LeftShoulder
				{
					OFFSET 0.000000 0.000000 0.000000
					CHANNELS 3 Zrotation Yrotation Xrotation
					JOINT LeftArm
					{
						OFFSET 3.362410 1.200890 -0.311210
						CHANNELS 3 Zrotation Yrotation Xrotation
						JOINT LeftForeArm
						{
							OFFSET 4.983000 -0.000000 -0.000000
							CHANNELS 3 Zrotation Yrotation Xrotation
							JOINT LeftHand
							{
								OFFSET 3.483560 -0.000000 -0.000000
								CHANNELS 3 Zrotation Yrotation Xrotation
								JOINT LeftFingerBase
								{
									OFFSET 0.000000 0.000000 0.000000
									CHANNELS 3 Zrotation Yrotation Xrotation
									JOINT LeftHandIndex1
									{
										OFFSET 0.715260 -0.000000 -0.000000
										CHANNELS 3 Zrotation Yrotation Xrotation
										End Site
										{
											OFFSET 0.000000 0.000000 0.000000
										}
									}
								}
								JOINT LThumb
								{
									OFFSET 0.000000 0.000000 0.000000
									CHANNELS 3 Zrotation Yrotation Xrotation
									End Site
									{
										OFFSET 0.000000 0.000000 0.000000
									}
								}
							}
						}
					}
				}
				JOINT RightShoulder
				{
					OFFSET 0.000000 0.000000 0.000000
					CHANNELS 3 Zrotation Yrotation Xrotation
					JOINT RightArm
					{
						OFFSET -3.136600 1.374050 -0.404650
						CHANNELS 3 Zrotation Yrotation Xrotation
						JOINT RightForeArm
						{
							OFFSET -5.241900 -0.000000 -0.000000
							CHANNELS 3 Zrotation Yrotation Xrotation
							JOINT RightHand
							{
								OFFSET -3.444170 -0.000000 -0.000000
								CHANNELS 3 Zrotation Yrotation Xrotation
								JOINT RightFingerBase
								{
									OFFSET 0.000000 0.000000 0.000000
									CHANNELS 3 Zrotation Yrotation Xrotation
									JOINT RightHandIndex1
									{
										OFFSET -0.622530 -0.000000 -0.000000
										CHANNELS 3 Zrotation Yrotation Xrotation
										End Site
										{
											OFFSET 0.000000 0.000000 0.000000
										}
									}
								}
								JOINT RThumb
								{
									OFFSET 0.000000 0.000000 0.000000
									CHANNELS 3 Zrotation Yrotation Xrotation
									End Site
									{
										OFFSET 0.000000 0.000000 0.000000
									}
								}
							}
						}
					}
				}
			}
		}
	}
}
}
MOTION
Frames: 14
Frame Time: 0.008333
-0.856094 17.398618 1.023298 -26.161206 -72.249846 40.881491 -0.848654 -1.779159 7.383451 -1.700030 -1.642565 -1.727188 -9.268357 -1.674338 -0.630784 6.705235 1.367990 1.869109 -5.296297 -0.425690 2.078836 0.000000 0.000000 0.000000 -7.078058 -8.051292 3.167103 -52.425963 -16.560357 11.631365 -3.445499 -33.198943 0.000765 4.818130 -4.203775 -0.184300 -0.104625 0.103765 0.000000 0.000000 0.000000 0.000000 0.000000 0.000000 0.000000 18.722668 -0.811195 0.582862 69.713624 2.745967 -4.631571 2.438215 26.124434 0.006637 -2.177324 10.766427 -0.212021 0.053829 -0.111574 0.000000 0.000000 0.000000 0.000000 0.000000 0.000000 0.000000 
-0.858203 17.397633 1.018431 -25.396725 -72.399007 40.307014 -1.036074 -1.790629 7.285193 -1.719247 -1.646354 -1.737296 -9.233262 -1.677487 -0.635301 6.710812 1.477520 1.946165 -5.272115 -0.424726 2.099303 0.000000 0.000000 0.000000 -7.118633 -7.968828 3.134164 -52.724450 -16.526092 11.734659 -3.410900 -33.950663 0.000720 4.827460 -4.286435 -0.188381 -0.104894 0.106614 0.000000 0.000000 0.000000 0.000000 0.000000 0.000000 0.000000 18.620901 -0.679868 0.559793 69.667670 3.034235 -4.925891 2.396980 26.596379 0.006261 -2.269636 10.812917 -0.221719 0.053184 -0.114791 0.000000 0.000000 0.000000 0.000000 0.000000 0.000000 0.000000 
-0.861150 17.396097 1.013372 -24.583552 -72.516721 39.612862 -1.224517 -1.810955 7.230448 -1.737294 -1.656753 -1.735402 -9.196450 -1.686429 -0.636832 6.728032 1.561736 2.016855 -5.246857 -0.423673 2.118146 0.000000 0.000000 0.000000 -7.139109 -7.879484 3.097893 -53.042709 -16.488004 11.861148 -3.379011 -34.630945 0.000680 4.831504 -4.360753 -0.191862 -0.105150 0.109303 0.000000 0.000000 0.000000 0.000000 0.000000 0.000000 0.000000 18.523697 -0.575604 0.532080 69.615697 3.319438 -5.159782 2.354008 27.085496 0.005850 -2.381420 10.865558 -0.233617 0.052563 -0.117858 0.000000 0.000000 0.000000 0.000000 0.000000 0.000000 0.000000 
-0.864966 17.394008 1.008100 -23.714819 -72.605960 38.793307 -1.418793 -1.838678 7.219572 -1.755936 -1.672461 -1.723526 -9.158263 -1.700137 -0.639551 6.759763 1.627278 2.085566 -5.220898 -0.422579 2.136526 0.000000 0.000000 0.000000 -7.135759 -7.800099 3.059464 -53.380313 -16.424106 12.000946 -3.349108 -35.246281 0.000646 4.825570 -4.423114 -0.194345 -0.105285 0.111747 0.000000 0.000000 0.000000 0.000000 0.000000 0.000000 0.000000 18.435019 -0.492637 0.501348 69.556935 3.588727 -5.342387 2.309497 27.599194 0.005407 -2.500283 10.919786 -0.246217 0.051861 -0.120739 0.000000 0.000000 0.000000 0.000000 0.000000 0.000000 0.000000 
-0.869647 17.391251 1.002827 -22.816124 -72.668277 37.883800 -1.613120 -1.870989 7.240221 -1.774797 -1.691646 -1.705556 -9.119097 -1.716934 -0.643235 6.804324 1.672936 2.151643 -5.194417 -0.421456 2.154468 0.000000 0.000000 0.000000 -7.113111 -7.730780 3.018852 -53.733380 -16.332822 12.160531 -3.321266 -35.792852 0.000623 4.811165 -4.474804 -0.196130 -0.105290 0.113860 0.000000 0.000000 0.000000 0.000000 0.000000 0.000000 0.000000 18.353447 -0.432316 0.467776 69.489504 3.840915 -5.466899 2.264942 28.132971 0.004947 -2.623087 10.979610 -0.259516 0.051117 -0.123423 0.000000 0.000000 0.000000 0.000000 0.000000 0.000000 0.000000 
-0.874832 17.388047 0.997395 -21.881320 -72.739750 36.911962 -1.827856 -1.899704 7.270409 -1.801336 -1.707870 -1.692559 -9.079902 -1.730873 -0.652606 6.864161 1.708301 2.216451 -5.168464 -0.420342 2.172041 0.000000 0.000000 0.000000 -7.067297 -7.678145 2.977801 -54.098629 -16.199200 12.323031 -3.295484 -36.277805 0.000621 4.781562 -4.512040 -0.196517 -0.105093 0.115525 0.000000 0.000000 0.000000 0.000000 0.000000 0.000000 0.000000 18.286550 -0.385100 0.433749 69.415142 4.068212 -5.554566 2.220592 28.695929 0.004476 -2.731558 11.031674 -0.271315 0.050201 -0.125866 0.000000 0.000000 0.000000 0.000000 0.000000 0.000000 0.000000 
-0.880767 17.384241 0.992225 -20.939359 -72.869310 36.002500 -2.071602 -1.910163 7.227781 -1.842676 -1.712063 -1.710543 -9.041121 -1.733445 -0.661990 6.931048 1.722360 2.269208 -5.143729 -0.419189 2.186665 0.000000 0.000000 0.000000 -7.009079 -7.611005 2.934547 -54.469228 -16.045306 12.514680 -3.273600 -36.688050 0.000664 4.745978 -4.540817 -0.196407 -0.104879 0.116547 0.000000 0.000000 0.000000 0.000000 0.000000 0.000000 0.000000 18.229405 -0.363670 0.397904 69.334123 4.284060 -5.579436 2.180499 29.268109 0.004046 -2.835808 11.090198 -0.283015 0.049412 -0.128050 0.000000 0.000000 0.000000 0.000000 0.000000 0.000000 0.000000 
-0.887533 17.379916 0.987375 -20.074968 -72.976417 35.121188 -2.292380 -1.918747 7.200980 -1.878739 -1.714022 -1.724188 -9.003787 -1.733799 -0.671528 7.007283 1.719428 2.316966 -5.119406 -0.418103 2.200571 0.000000 0.000000 0.000000 -6.944477 -7.551869 2.890217 -54.838307 -15.865472 12.728393 -3.253598 -37.026523 0.000723 4.704435 -4.560041 -0.195500 -0.104525 0.117120 0.000000 0.000000 0.000000 0.000000 0.000000 0.000000 0.000000 18.181032 -0.356632 0.361386 69.241269 4.487066 -5.552707 2.143074 29.844966 0.003637 -2.930665 11.153355 -0.293914 0.048617 -0.130097 0.000000 0.000000 0.000000 0.000000 0.000000 0.000000 0.000000 
-0.894755 17.375259 0.982708 -19.297486 -73.073187 34.274333 -2.495186 -1.923837 7.196120 -1.910928 -1.711816 -1.732162 -8.968794 -1.729946 -0.681559 7.092889 1.703283 2.358121 -5.096124 -0.417092 2.213024 0.000000 0.000000 0.000000 -6.874466 -7.494473 2.846178 -55.200629 -15.670252 12.958219 -3.236296 -37.289965 0.000805 4.653611 -4.569398 -0.193795 -0.104053 0.117258 0.000000 0.000000 0.000000 0.000000 0.000000 0.000000 0.000000 18.145471 -0.357906 0.324991 69.139059 4.681270 -5.494073 2.107835 30.428619 0.003246 -3.004526 11.208045 -0.302714 0.047720 -0.132009 0.000000 0.000000 0.000000 0.000000 0.000000 0.000000 0.000000 
-0.902675 17.370180 0.978471 -18.633851 -73.159653 33.504399 -2.670664 -1.924279 7.194394 -1.937430 -1.705266 -1.738357 -8.936173 -1.721963 -0.691429 7.182642 1.672982 2.392124 -5.073791 -0.416183 2.224270 0.000000 0.000000 0.000000 -6.806222 -7.440926 2.802195 -55.551415 -15.451223 13.207128 -3.220833 -37.483725 0.000902 4.599914 -4.570634 -0.191592 -0.103454 0.116916 0.000000 0.000000 0.000000 0.000000 0.000000 0.000000 0.000000 18.116701 -0.368485 0.289097 69.028399 4.867806 -5.396833 2.076059 31.003558 0.002891 -3.068244 11.266012 -0.310613 0.046869 -0.133845 0.000000 0.000000 0.000000 0.000000 0.000000 0.000000 0.000000 
-0.911385 17.364774 0.974685 -18.082622 -73.239787 32.814706 -2.819485 -1.920029 7.193052 -1.958561 -1.694450 -1.743531 -8.906153 -1.710012 -0.701653 7.274401 1.632754 2.419260 -5.052640 -0.415385 2.234362 0.000000 0.000000 0.000000 -6.743536 -7.390552 2.759333 -55.886324 -15.207213 13.471015 -3.207268 -37.610536 0.001012 4.543938 -4.563753 -0.188991 -0.102734 0.116090 0.000000 0.000000 0.000000 0.000000 0.000000 0.000000 0.000000 18.093936 -0.384000 0.254107 68.912379 5.044949 -5.273157 2.047556 31.566713 0.002565 -3.121223 11.325136 -0.317513 0.046057 -0.135622 0.000000 0.000000 0.000000 0.000000 0.000000 0.000000 0.000000 
-0.920530 17.359183 0.971306 -17.641355 -73.320834 32.194280 -2.944583 -1.911079 7.202309 -1.975097 -1.678994 -1.745221 -8.878897 -1.693487 -0.711055 7.366159 1.581808 2.436480 -5.033012 -0.414668 2.242174 0.000000 0.000000 0.000000 -6.688750 -7.332651 2.718410 -56.202766 -14.956642 13.748600 -3.196656 -37.662819 0.001139 4.485733 -4.550915 -0.185993 -0.101944 0.114820 0.000000 0.000000 0.000000 0.000000 0.000000 0.000000 0.000000 18.077570 -0.404212 0.219989 68.793384 5.222092 -5.131962 2.021823 32.113383 0.002266 -3.163578 11.379014 -0.323211 0.045274 -0.137344 0.000000 0.000000 0.000000 0.000000 0.000000 0.000000 0.000000 
-0.930356 17.353473 0.968347 -17.302737 -73.402969 31.639623 -3.045762 -1.898006 7.220714 -1.987050 -1.659633 -1.743971 -8.854077 -1.673193 -0.720195 7.455288 1.522965 2.444568 -5.014846 -0.414027 2.247940 0.000000 0.000000 0.000000 -6.644403 -7.269035 2.679927 -56.499659 -14.695100 14.035237 -3.188654 -37.644188 0.001278 4.428105 -4.533020 -0.182797 -0.101076 0.113107 0.000000 0.000000 0.000000 0.000000 0.000000 0.000000 0.000000 18.064684 -0.427037 0.187032 68.674343 5.396857 -4.977831 1.998746 32.637164 0.001988 -3.201169 11.431724 -0.328510 0.044556 -0.139034 0.000000 0.000000 0.000000 0.000000 0.000000 0.000000 0.000000 
-0.940861 17.347716 0.965763 -17.055424 -73.486722 31.135924 -3.125311 -1.881523 7.252210 -1.994932 -1.636993 -1.739086 -8.831437 -1.649693 -0.729344 7.540255 1.457299 2.443445 -4.998200 -0.413452 2.251555 0.000000 0.000000 0.000000 -6.610543 -7.198748 2.644244 -56.777598 -14.424837 14.326106 -3.183369 -37.553696 0.001424 4.372057 -4.510848 -0.179604 -0.100131 0.110969 0.000000 0.000000 0.000000 0.000000 0.000000 0.000000 0.000000 18.054103 -0.451727 0.155257 68.558494 5.569316 -4.815975 1.977914 33.134631 0.001724 -3.237585 11.482762 -0.333709 0.043915 -0.140696 0.000000 0.000000 0.000000 0.000000 0.000000 0.000000 0.000000 
